<?xml version="1.0" encoding="utf-8"?>
<!-- Generator: Adobe Illustrator 21.1.0, SVG Export Plug-In . SVG Version: 6.00 Build 0)  -->
<svg version="1.1" id="Capa_1" xmlns="http://www.w3.org/2000/svg" xmlns:xlink="http://www.w3.org/1999/xlink" x="0px" y="0px"
	 viewBox="0 0 1000 1000" style="enable-background:new 0 0 1000 1000;" xml:space="preserve">
<style type="text/css">
	.st0{fill:#FB6300;}
	.st1{fill:#FFFFFF;}
	.st2{display:none;}
	.st3{display:inline;fill:#FFFFFF;}
</style>
<g>
	
		<rect x="-332" y="207" transform="matrix(0.7071 -0.7071 0.7071 0.7071 -134.3723 263.5921)" class="st0" width="1166" height="174"/>
	<g>
		<path class="st1" d="M42.3,453.8c3.6-4.9,8.7-10.8,14.6-16.7c9.7-9.7,17.7-14.3,26.4-15.5c9.3-1.4,18.9,1.6,27.9,10.6
			c9.8,9.8,13,20.1,12.2,29.2c-0.9,9.9-7,20.2-17,30.2c-6,6-10.6,9.9-13.9,12.4L42.3,453.8z M95.7,483.9c1.2-0.8,2.8-2.4,4.2-3.8
			c10.5-10.4,11.6-23-0.6-35.2c-10.5-10.7-22.4-10.1-32.3-0.2c-2.6,2.6-4,4.5-4.8,5.7L95.7,483.9z"/>
		<path class="st1" d="M154.4,399.4l-18.8,18.8l12.1,12.1l21-21l9.5,9.5l-32.6,32.6l-51.1-51.1l31.5-31.5l9.5,9.5l-19.9,19.9
			l10.6,10.6L145,390L154.4,399.4z"/>
		<path class="st1" d="M174.5,398.7c4.7-1.5,11.1-4.7,16-9.6c5.3-5.3,5.9-10.3,2.6-13.7c-3.2-3.2-7.4-2.6-15.8,1.4
			c-11.5,5.5-21.7,6.4-29.1-1.1c-8.7-8.7-8.1-22.7,3.9-34.7c5.8-5.8,11.2-8.8,15.6-10.5l6.8,11.9c-3,1.1-8.1,3.3-13.1,8.3
			s-5.2,9.7-2.5,12.4c3.3,3.3,7.6,1.8,16.7-2.3c12.4-5.7,21.3-5.2,28.5,2c8.6,8.6,9.3,22.4-4.8,36.5c-5.8,5.8-13.1,10.1-17.6,11.4
			L174.5,398.7z"/>
		<path class="st1" d="M195.5,318.8l-13.7,13.7l-9.7-9.7l39.3-39.3l9.7,9.7l-14,14l41.4,41.4l-11.6,11.6L195.5,318.8z"/>
		<path class="st1" d="M261.9,308.9l9.5,16.8l-12,12L223.9,271l15.2-15.2l67,35.3l-12.4,12.4l-17.1-9.2L261.9,308.9z M266.2,287.3
			l-14-7.7c-3.9-2.1-8.6-5-12.4-7.3l-0.2,0.2c2.3,3.8,5.4,8.4,7.5,12.2l7.8,13.9L266.2,287.3z"/>
		<path class="st1" d="M347.1,247.1c-1.1,3.2-4.7,9.1-10.9,15.3c-17.7,17.7-37.8,15.8-52.3,1.2c-17.4-17.4-14.7-39.6,0.8-55.1
			c6-6,11.8-9.3,14.9-10.3l6.8,11.5c-3.3,1.4-7.5,3.7-11.6,7.8c-9.2,9.2-10.8,21.8,0.6,33.2c10.2,10.2,22.8,10.6,33.1,0.3
			c3.5-3.5,6.6-8.1,8-11.3L347.1,247.1z"/>
		<path class="st1" d="M355.6,215.2l9.5,16.8l-12,12l-35.5-66.7l15.2-15.2l67,35.3l-12.4,12.4l-17.1-9.2L355.6,215.2z M359.9,193.6
			l-14-7.7c-3.9-2.1-8.6-5-12.4-7.3l-0.2,0.2c2.3,3.8,5.4,8.4,7.5,12.2l7.8,13.9L359.9,193.6z"/>
		<path class="st1" d="M356.1,140c3.6-4.9,8.7-10.8,14.6-16.7c9.7-9.7,17.7-14.3,26.4-15.5c9.3-1.4,18.9,1.6,27.9,10.6
			c9.8,9.8,13,20.1,12.2,29.2c-0.9,9.9-7,20.2-17,30.2c-6,6-10.6,9.9-13.9,12.4L356.1,140z M409.5,170.1c1.2-0.8,2.8-2.4,4.2-3.8
			c10.5-10.4,11.6-23-0.6-35.2c-10.5-10.7-22.4-10.1-32.3-0.2c-2.6,2.6-4,4.5-4.8,5.7L409.5,170.1z"/>
		<path class="st1" d="M480.1,64.8c16.8,16.8,16.8,37.1,1.8,52c-15.2,15.2-35.5,12.6-50.1-2c-15.3-15.3-17-36.6-1.9-51.6
			C445.6,47.5,466,50.7,480.1,64.8z M443.8,102.4c10,10,21.8,12.4,29.5,4.6c7.8-7.8,4.9-19.7-5.1-29.7c-9.2-9.2-21.5-12.7-29.4-4.7
			C431,80.5,433.9,92.5,443.8,102.4z"/>
	</g>
	<g class="st2">
		<path class="st3" d="M164.9,433l-67.5-34.7l12.7-12.7l27.8,15.4c7.8,4.3,15.2,8.6,22.8,13.7l0.2-0.2c-4.9-7.4-9.3-15.1-13.4-22.7
			l-15.3-28.4l12.3-12.3l33.9,68.3L164.9,433z"/>
		<path class="st3" d="M209.9,344.8l-18.8,18.8l12.1,12.1l21-21l9.5,9.5l-32.6,32.6L150,345.7l31.5-31.5l9.5,9.5l-20,19.9l10.6,10.6
			l18.8-18.8L209.9,344.8z"/>
		<path class="st3" d="M241.6,356.3l-51.1-51.1l13.5-13.5l29.4,8.1c8.4,2.4,17.8,5.7,25.9,9.2l0.2-0.2c-7.5-6-14.6-12.7-22.3-20.3
			l-14.9-14.9l10.6-10.6l51.1,51.1l-12.1,12.1l-30.6-8.8c-8.5-2.4-18.4-5.7-26.9-9.2l-0.2,0.3c7.1,6.4,14.4,13.5,22.8,21.8
			l15.4,15.4L241.6,356.3z"/>
		<path class="st3" d="M243.5,253.6c3.6-4.9,8.7-10.8,14.6-16.7c9.7-9.7,17.7-14.3,26.4-15.5c9.3-1.4,18.9,1.6,27.9,10.6
			c9.8,9.8,13,20.1,12.2,29.2c-0.9,9.9-7,20.2-17,30.2c-6,6-10.6,9.9-13.9,12.4L243.5,253.6z M296.8,283.7c1.2-0.8,2.8-2.4,4.2-3.8
			c10.5-10.4,11.6-23-0.6-35.2c-10.5-10.7-22.4-10.1-32.3-0.2c-2.6,2.6-4,4.5-4.8,5.7L296.8,283.7z"/>
		<path class="st3" d="M307.2,188.5l51.1,51.1l-11.6,11.6l-51.1-51.1L307.2,188.5z"/>
		<path class="st3" d="M317.9,179.2c3.6-4.9,8.7-10.8,14.6-16.7c9.7-9.7,17.7-14.3,26.4-15.5c9.3-1.4,18.9,1.6,27.9,10.6
			c9.8,9.8,13,20.1,12.2,29.2c-0.9,9.9-7,20.2-17,30.2c-6,6-10.6,9.9-13.9,12.4L317.9,179.2z M371.2,209.3c1.2-0.8,2.8-2.4,4.2-3.8
			c10.5-10.4,11.6-23-0.6-35.2c-10.5-10.7-22.4-10.1-32.3-0.2c-2.6,2.6-4,4.5-4.8,5.7L371.2,209.3z"/>
		<path class="st3" d="M441.8,104c16.8,16.8,16.8,37.1,1.8,52c-15.2,15.2-35.5,12.6-50.1-2c-15.3-15.3-17-36.6-1.9-51.6
			C407.3,86.7,427.7,89.9,441.8,104z M405.5,141.6c10,10,21.8,12.4,29.5,4.6c7.8-7.8,4.9-19.7-5.1-29.7c-9.2-9.2-21.5-12.7-29.4-4.7
			C392.7,119.7,395.6,131.6,405.5,141.6z"/>
	</g>
	<g class="st2">
		<path class="st3" d="M84.3,485.4l9.5,16.8l-12,12l-35.5-66.7l15.2-15.2l67,35.3L116,479.9l-17-9.1L84.3,485.4z M88.6,463.8
			l-14-7.7c-3.9-2.1-8.6-5-12.4-7.3L62,449c2.3,3.8,5.4,8.4,7.5,12.2l7.8,13.9L88.6,463.8z"/>
		<path class="st3" d="M84.8,410.3c3.1-4.3,8.2-10.3,14.3-16.5c7.6-7.6,14-11.8,20.6-12.5c5.5-0.6,10.7,1.3,15.4,6
			c6.5,6.5,6.4,15.6,3.6,21.6l0.2,0.2c5-2.1,10.4-0.7,16.4,2.7c7.4,4.2,15.6,9.3,18.6,10.2l-11.8,11.8c-2.3-0.6-7.7-3.6-15.5-8.3
			c-7.7-5-11.7-4.5-16.5,0.1l-3.5,3.5l20.1,20.1l-11.5,11.5L84.8,410.3z M118.3,420.8l4.6-4.6c5.8-5.8,6.3-12.1,1.8-16.5
			c-4.7-4.7-10.2-3.9-15.6,1.4c-2.8,2.8-4.2,4.6-4.9,5.6L118.3,420.8z"/>
		<path class="st3" d="M129.8,365.3c3.1-4.3,8.2-10.3,14.3-16.5c7.6-7.6,14-11.8,20.6-12.5c5.5-0.6,10.7,1.3,15.4,6
			c6.5,6.5,6.4,15.6,3.6,21.6l0.2,0.2c5-2.1,10.4-0.7,16.4,2.7c7.4,4.2,15.6,9.3,18.6,10.2L207,388.9c-2.3-0.6-7.7-3.6-15.5-8.3
			c-7.7-5-11.7-4.6-16.5,0.1l-3.5,3.5l20.1,20.1l-11.5,11.5L129.8,365.3z M163.3,375.8l4.6-4.6c5.8-5.8,6.3-12.1,1.8-16.5
			c-4.7-4.7-10.2-3.9-15.6,1.4c-2.8,2.8-4.2,4.6-4.9,5.6L163.3,375.8z"/>
		<path class="st3" d="M234,318.7l-18.8,18.8l12.1,12.1l21-21l9.5,9.5l-32.6,32.6l-51.1-51.1l31.5-31.5l9.5,9.5l-19.9,19.9
			l10.6,10.6l18.8-18.8L234,318.7z"/>
		<path class="st3" d="M265.7,330.2l-51.1-51.1l13.5-13.5l29.4,8.1c8.4,2.4,17.8,5.7,25.9,9.2l0.2-0.2c-7.5-6-14.6-12.7-22.3-20.3
			l-14.9-14.9l10.6-10.6l51.1,51.1L296,300.1l-30.6-8.8c-8.5-2.4-18.4-5.7-26.9-9.2l-0.2,0.3c7.1,6.4,14.4,13.5,22.8,21.8l15.4,15.4
			L265.7,330.2z"/>
		<path class="st3" d="M267.6,227.5c3.6-4.9,8.7-10.8,14.6-16.7c9.7-9.7,17.7-14.3,26.4-15.5c9.3-1.4,18.9,1.6,27.9,10.6
			c9.8,9.8,13,20.1,12.2,29.2c-0.9,9.9-7,20.2-17,30.2c-6,6-10.6,9.9-13.9,12.4L267.6,227.5z M320.9,257.6c1.2-0.8,2.8-2.4,4.2-3.8
			c10.5-10.4,11.6-23-0.6-35.2c-10.5-10.7-22.4-10.1-32.3-0.2c-2.6,2.6-4,4.5-4.8,5.7L320.9,257.6z"/>
		<path class="st3" d="M368.4,201.3l9.5,16.8l-12,12l-35.5-66.7l15.2-15.2l67,35.3l-12.4,12.4l-17.1-9.2L368.4,201.3z M372.7,179.7
			l-14-7.7c-3.9-2.1-8.6-5-12.4-7.3l-0.2,0.2c2.3,3.8,5.4,8.4,7.5,12.2l7.8,13.9L372.7,179.7z"/>
		<path class="st3" d="M368.9,126.2c3.6-4.9,8.7-10.8,14.6-16.7c9.7-9.7,17.7-14.3,26.4-15.5c9.3-1.4,18.9,1.6,27.9,10.6
			c9.8,9.8,13,20.1,12.2,29.2c-0.9,9.9-7,20.2-17,30.2c-6,6-10.6,9.9-13.9,12.4L368.9,126.2z M422.2,156.3c1.2-0.8,2.8-2.4,4.2-3.8
			c10.5-10.4,11.6-23-0.6-35.2c-10.5-10.7-22.4-10.1-32.3-0.2c-2.6,2.6-4,4.5-4.8,5.7L422.2,156.3z"/>
		<path class="st3" d="M492.9,50.9c16.8,16.8,16.8,37.1,1.8,52c-15.2,15.2-35.5,12.6-50.1-2c-15.3-15.3-17-36.6-1.9-51.6
			C458.4,33.6,478.7,36.8,492.9,50.9z M456.6,88.6c10,10,21.8,12.4,29.5,4.6c7.8-7.8,4.9-19.7-5.1-29.7c-9.2-9.2-21.5-12.7-29.4-4.7
			C443.8,66.6,446.7,78.6,456.6,88.6z"/>
	</g>
</g>
</svg>
